<?xml version="1.0" encoding="utf-8"?>
<!-- Generator: Adobe Illustrator 25.0.1, SVG Export Plug-In . SVG Version: 6.00 Build 0)  -->
<svg version="1.1" id="Calque_1" xmlns="http://www.w3.org/2000/svg" xmlns:xlink="http://www.w3.org/1999/xlink" x="0px" y="0px"
	 viewBox="0 0 531 275" style="enable-background:new 0 0 531 275;" xml:space="preserve">
<style type="text/css">
	.st0{fill:#5B4036;}
</style>
<g id="XMLID_23_">
	<g>
		<path class="st0" d="M123.42,110.19c-13.42-4.32-27.52,4.04-36,14.03c-8.79,10.36-13,24.13-10.82,37.6
			c1.11,6.9,3.86,13.65,8.12,19.21c4.48,5.83,10.63,9.45,18.02,9.89c13.53,0.81,26.36-8.04,34.82-17.85
			c10.83-12.57,16.25-28.64,20.02-44.53c0.3-1.27-0.2-2.53-1.43-3.12c-0.95-0.45-2.74-0.3-3.04,0.98
			c-3.16,13.34-7.36,26.84-15.29,38.19c-6.91,9.89-16.93,18.7-29.03,21.23c-5.95,1.24-12.24,0.47-16.98-3.55
			c-4.65-3.95-7.8-9.94-9.45-15.74c-3.44-12.08-1.07-25.09,6.06-35.38c7.32-10.58,21.09-20.78,34.59-16.43
			c1.17,0.38,2.46-0.56,2.57-1.74C125.71,111.56,124.62,110.58,123.42,110.19L123.42,110.19z"/>
	</g>
</g>
<g id="XMLID_24_">
	<g>
		<path class="st0" d="M170.31,51.8c-2.39,21.56-4.45,43.15-6.19,64.78c-1.73,21.61-3.15,43.24-4.23,64.89
			c-0.61,12.24-1.12,24.48-1.52,36.73c-0.04,1.2,1.75,1.12,2.48,0.88c1.09-0.37,2.11-1.26,2.15-2.46c0.71-21.6,1.74-43.18,3.1-64.75
			c1.36-21.5,3.04-42.97,5.04-64.42c1.13-12.12,2.37-24.22,3.71-36.32C175.16,48.46,170.53,49.81,170.31,51.8L170.31,51.8z"/>
	</g>
</g>
<g id="XMLID_29_">
	<g>
		<path class="st0" d="M119.27,147.95c5.24-4.5,12.6-1.72,17.64,1.53c3.22,2.08,6.3,4.39,9.7,6.18c3.08,1.62,6.4,2.74,9.81,3.42
			c13.51,2.67,27.69-2.84,35.27-14.44c4.02-6.16,6.09-13.6,5.59-20.96c-0.08-1.13-1.06-2-2.03-2.48c-0.43-0.22-2.4-0.83-2.32,0.29
			c0.9,13.15-6.52,26.3-18.59,31.82c-6.16,2.81-13.17,3.59-19.8,2.28c-3.23-0.64-6.32-1.86-9.14-3.54
			c-3.23-1.93-6.21-4.23-9.45-6.13c-6.16-3.62-14.77-5.96-20.78-0.8C114,146.1,117.83,149.18,119.27,147.95L119.27,147.95z"/>
	</g>
</g>
<g id="XMLID_37_">
	<g>
		<path class="st0" d="M179.16,187.91c4.81-4.6,8.51-10.2,10.86-16.43c-1.34-0.94-2.68-1.88-4.02-2.83c0.61,2.65-1.24,4.96-1.96,7.4
			c-0.9,3.04,0.83,5.46,3.38,7.05c2.21,1.38,4.98,1.66,7.19,0.14c2.57-1.76,3.25-5.24,3.84-8.09c-0.09,0.11-0.18,0.23-0.27,0.34
			c-0.65-0.45-1.31-0.9-1.96-1.35c0.06,0.15,0.1,0.3,0.1,0.45c-0.02,0.26,0.01,0.52-0.01,0.78c-0.05,0.63-0.21,1.24-0.26,1.87
			c-0.1,1.09,0.16,2.09,0.73,3.01c1.23,1.99,3.46,3.6,5.68,4.28c4.73,1.45,8.16-2.13,10.55-5.76c0.69-1.04-3.35-3.97-3.96-3.05
			c-1.21,1.83-2.57,3.71-4.46,4.89c-0.84,0.53-1.84,0.92-2.84,0.98c-0.44,0.02-0.86-0.09-1.3-0.11c-1.15-0.07,0.25-0.15-0.11,0.17
			c-0.03,0.03-0.22-1.76-0.19-2.02c0.13-1.08,0.43-2.14,0.09-3.21c-0.68-2.15-3.31-4.33-5.61-4.23c-0.18,0.04-0.27,0.16-0.27,0.34
			c-0.48,2.32-1.02,4.78-2.6,6.62c-0.65,0.76-1.43,1.3-2.39,1.59c-0.46,0.14-0.96,0.23-1.44,0.23c-0.48,0-1.38-0.43-0.54,0.15
			c0.23,0.11,0.43,0.27,0.58,0.47c0.16,0.21,0.18,0.21,0.08,0.02c0.02-0.06-0.19-0.63-0.2-0.69c-0.07-0.43-0.03-0.89,0.04-1.31
			c0.16-0.97,0.6-1.89,0.99-2.78c0.77-1.75,1.65-3.63,1.2-5.59c-0.21-0.91-1.08-1.63-1.81-2.14c-0.25-0.17-1.98-1.3-2.21-0.69
			c-2.35,6.23-6.05,11.83-10.86,16.43C174.49,185.54,178.19,188.84,179.16,187.91L179.16,187.91z"/>
	</g>
</g>
<g id="XMLID_39_">
	<g>
		<path class="st0" d="M247.62,186.31c4.77-4.22,9.54-8.44,14.3-12.66c-1.2-1.04-2.4-2.08-3.6-3.13
			c-5.49,17.1-10.36,34.39-14.59,51.85c-1.2,4.98-2.36,9.96-3.46,14.96c-0.27,1.25,0.33,2.57,1.47,3.17
			c0.94,0.5,2.46,0.32,2.73-0.92c3.87-17.54,8.36-34.93,13.5-52.14c1.46-4.91,2.98-9.79,4.55-14.67c0.55-1.71-1.87-4.66-3.6-3.13
			c-4.77,4.22-9.54,8.44-14.3,12.66C242.64,184.07,245.65,188.06,247.62,186.31L247.62,186.31z"/>
	</g>
</g>
<g id="XMLID_42_">
	<g>
		<path class="st0" d="M263.4,176.01c0.25-0.01,0.45,0.04,0.7,0.08c0.26,0.04,0.3,0.33-0.26-0.36c-0.21-0.26-0.39-0.53-0.54-0.82
			c-0.07-0.18-0.07-0.16,0.01,0.07c0.01,0.04,0.06,0.39,0.08,0.53c0.13,1.3-0.07,2.6,0.24,3.89c0.62,2.59,2.69,5.55,5.39,6.25
			c1.86,0.48,3.88-0.08,5.31-1.32c1.82-1.57,2.83-3.87,3.78-6.03c0.12-0.28-0.21-0.97-0.31-1.18c-0.26-0.57-0.63-1.15-1.02-1.63
			c-0.22-0.27-1.36-1.69-1.68-0.97c-0.93,2.11-1.91,4.33-3.75,5.82c-1.39,1.13-3.33,1.64-5.06,1.02c-0.17-0.06-0.33-0.14-0.48-0.23
			c-0.16-0.11-0.19-0.12-0.08-0.03c-0.17-0.15-0.17-0.14,0.01,0.03c0.29,0.43,0.79,0.69,0.85,1.29c-0.02-0.25-0.1-0.51-0.13-0.77
			c-0.11-1.16,0.08-2.35-0.16-3.5c-0.32-1.56-1.13-3-2.1-4.24c-0.76-0.97-1.85-2.12-3.19-2.07c-0.8,0.03,0.11,1.64,0.28,1.92
			c0.33,0.55,0.69,1.09,1.14,1.56C262.64,175.52,263.06,176.02,263.4,176.01L263.4,176.01z"/>
	</g>
</g>
<g id="XMLID_43_">
	<g>
		<path class="st0" d="M277.54,180.55c1.99-2.17,2.81-5.29,1.92-8.14c-0.2-0.63-0.48-1.21-0.83-1.77c-0.47-0.75-1.13-0.85-1.99-0.85
			c-1.54,0-3.56,0.52-4.47,1.88c-0.54,0.8-0.71,1.96-0.29,2.85c0.61,1.32,2.22,1.69,3.55,1.73c1.9,0.06,3.86-0.48,5.54-1.33
			c0.83-0.42,1.59-0.93,2.38-1.42c0.32-0.2,0.67-0.38,0.98-0.59c0.11-0.05,0.22-0.1,0.33-0.16c-0.35,0.05-0.3,0.06,0.15,0.02
			c-0.65-0.25-1.3-0.49-1.95-0.74c-0.57,3.18-1.06,6.41-1.26,9.64c-0.07,1.13-0.02,2.28,0.64,3.24c0.77,1.13,2.18,1.4,3.46,1.4
			c3.04,0,5.98-1.53,8.46-3.16c2.37-1.57,4.47-3.5,6.21-5.75c0.64-0.83-0.48-1.04-1.14-1.04c-0.92-0.01-2.65,0.24-3.27,1.05
			c-1.24,1.61-2.66,3.09-4.27,4.33c-0.81,0.62-1.67,1.19-2.56,1.69c-0.4,0.23-0.82,0.45-1.24,0.64c-0.02,0.01-0.41,0.18-0.42,0.18
			c0,0,0.33,0.12,0.28-0.04c-0.01-0.03-0.44-0.26-0.5-0.31c-0.17-0.15-0.29-0.31-0.4-0.51c-0.21-0.38-0.3-0.83-0.35-1.26
			c-0.12-0.99,0.02-1.99,0.11-2.98c0.25-2.57,0.61-5.12,1.06-7.65c0.17-0.93-1.43-0.77-1.95-0.74c-1.6,0.1-3.16,0.59-4.57,1.33
			c-1.14,0.59-2.16,1.45-3.32,1.98c-0.19,0.09-0.55,0.11-0.33,0.15c0.39,0.07,0.06-0.06,0.01-0.12c-0.32-0.33-0.65-0.36-0.84-0.83
			c-0.15-0.37-0.17-0.84-0.1-1.23c0.04-0.19,0.14-0.35,0.18-0.53c0.03-0.06,0.07-0.13,0.1-0.19c0.62-0.7-0.19-0.5-2.45,0.61
			c-0.24-0.09-0.48-0.17-0.71-0.26c1.82,2.65,1.6,6.53-0.58,8.9c-0.73,0.8,0.56,1.04,1.14,1.04
			C275.27,181.6,276.81,181.34,277.54,180.55L277.54,180.55z"/>
	</g>
</g>
<g id="XMLID_45_">
	<g>
		<path class="st0" d="M301.99,172.75c-2.75,1.6-3.6,5.07-2.64,7.97c0.55,1.68,1.83,3.12,3.49,3.79c1.63,0.66,3.3,0.93,4.98,0.42
			c0.92-0.27,1.76-0.77,2.47-1.4c1.41-1.24,2.36-2.99,2.31-4.91c-0.05-1.91-0.99-3.68-2.4-4.94c-0.83-0.74-1.81-1.28-2.84-1.7
			c-1.49-0.6-3.36-1.21-4.99-1.04c-0.69,0.07-1.62,0.47-1.47,1.31c0.14,0.84,1.05,1.39,1.73,1.77c1.48,0.82,3.36,1.36,5.05,1.39
			c1.24,0.03,2.52-0.27,3.7-0.63c2.36-0.72,4.45-2.03,6.2-3.76c0.29-0.29-2.09-1.13-2.27-1.18c-0.61-0.16-2.02-0.67-2.55-0.14
			c-1.58,1.56-3.52,2.73-5.63,3.43c-0.5,0.17-1.02,0.31-1.53,0.42c-0.24,0.05-0.49,0.09-0.73,0.12c-0.29,0.04-0.89,0.01-0.19,0.12
			c0.54,0.09,1.31,0.1,1.68,0.5c-0.1-0.1-0.23-0.16-0.33-0.26c-0.21-0.22-0.38-0.49-0.32-0.81c0.03-0.14,0.1-0.27,0.2-0.38
			c0.07-0.07,0.48-0.24,0.48-0.24c-0.02,0.07-1.55-0.22-1.67-0.38c-0.08-0.11,0.07,0.03,0.12,0.06c0.51,0.29-0.04-0.04,0.24,0.15
			c0.78,0.51,1.4,1.24,1.86,2.04c0.99,1.7,1.08,3.74,0.24,5.51c-0.92,1.94-2.86,3.43-5.03,3.58c1.39,0.38,2.78,0.76,4.16,1.14
			c-3.59-2.17-3.32-8.35,0.24-10.41c0.59-0.34-1.35-1.04-1.51-1.1c-0.61-0.2-1.24-0.37-1.87-0.46
			C302.85,172.7,302.29,172.57,301.99,172.75L301.99,172.75z"/>
	</g>
</g>
<g id="XMLID_48_">
	<g>
		<path class="st0" d="M319.46,172.98c-1.91,1.78-2.1,4.67-1.35,7.02c0.79,2.49,3,4.62,5.62,5.02c2.84,0.43,5.81-0.88,7.41-3.28
			c0.78-1.17,1.33-2.5,1.35-3.92c0.03-1.63-0.43-3.11-1.28-4.49c-1.69-2.75-5.11-4.57-8.34-4.28c-1.22,0.11-2.27,1.12-2.03,2.42
			c0.22,1.22,1.39,2.39,2.71,2.27c0.23-0.02,0.46-0.03,0.69-0.03c0.49,0.01-0.08,0-0.07-0.02c0,0,0.33,0.05,0.3,0.04
			c0.23,0.04,0.45,0.09,0.68,0.15c0.1,0.03,0.4,0.17,0.07,0.01c-0.38-0.18,0.12,0.06,0.2,0.09c0.21,0.09,0.42,0.2,0.62,0.31
			c0.06,0.04,0.19,0.14,0.27,0.16c-0.41-0.12-0.38-0.27-0.18-0.11c0.2,0.16,0.41,0.31,0.6,0.49c0.07,0.06,0.15,0.16,0.22,0.21
			c-0.08-0.09-0.16-0.18-0.25-0.27c0.07,0.08,0.14,0.15,0.2,0.23c0.13,0.16,0.25,0.32,0.36,0.49c0.04,0.06,0.27,0.49,0.08,0.11
			c-0.17-0.34-0.02-0.03,0.02,0.06c0.1,0.21,0.18,0.42,0.26,0.63c0.14,0.37-0.04-0.1-0.03-0.16c0,0.13,0.07,0.32,0.09,0.45
			c0.02,0.1,0.03,0.2,0.04,0.3c0,0.05,0.01,0.1,0.01,0.15c0.01,0.2,0.01,0.21,0,0.01c0-0.05,0-0.1,0-0.15c0,0.1-0.01,0.2-0.02,0.3
			c-0.01,0.1-0.02,0.2-0.04,0.3c-0.01,0.08-0.06,0.22-0.06,0.3c-0.03-0.33,0.11-0.36,0.03-0.14c-0.1,0.26-0.19,0.52-0.31,0.77
			c-0.04,0.09-0.1,0.18-0.14,0.27c-0.15,0.29,0.34-0.46,0.03-0.06c-0.13,0.16-0.24,0.33-0.37,0.48c-0.15,0.17-0.31,0.33-0.47,0.49
			c-0.23,0.23,0.46-0.34,0.05-0.05c-0.12,0.09-0.24,0.18-0.37,0.27c-0.17,0.11-0.34,0.21-0.52,0.31c-0.38,0.22,0.13-0.07,0.13-0.05
			c0,0.03-0.31,0.12-0.35,0.14c-0.21,0.08-0.43,0.13-0.64,0.18c-0.34,0.09,0.13-0.09,0.15-0.02c0,0-0.42,0.03-0.44,0.03
			c-0.1,0-0.2,0-0.3,0c-0.43,0,0.16-0.01,0.17,0.02c0,0.01-0.67-0.16-0.71-0.16c0.04,0,0.57,0.25,0.24,0.08
			c-0.07-0.04-0.15-0.07-0.23-0.11c-0.06-0.03-0.15-0.1-0.22-0.12c0.6,0.21,0.37,0.26,0.14,0.09c-0.16-0.12-0.3-0.3-0.47-0.41
			c0.02,0.01,0.44,0.52,0.2,0.21c-0.05-0.07-0.11-0.13-0.16-0.2c-0.12-0.15-0.21-0.32-0.32-0.47c-0.18-0.24,0.23,0.5,0.13,0.22
			c-0.04-0.12-0.11-0.23-0.16-0.35c-0.04-0.1-0.08-0.2-0.12-0.3c-0.07-0.2-0.07-0.54,0.01,0.1c-0.03-0.21-0.1-0.42-0.12-0.63
			c-0.01-0.08-0.02-0.17-0.03-0.25c-0.02-0.25,0.08-0.44-0.01,0.09c0.03-0.2,0.01-0.42,0.04-0.62c0.01-0.08,0.02-0.16,0.04-0.25
			c0.08-0.42,0.08-0.07-0.03,0.09c0.11-0.14,0.14-0.41,0.22-0.57c0.04-0.08,0.25-0.41,0.02-0.07c-0.24,0.35,0.03-0.03,0.09-0.1
			c0.14-0.19,0.3-0.35,0.47-0.51c0.4-0.38,0.53-1.17,0.45-1.68c-0.08-0.6-0.45-1.27-0.93-1.64
			C321.72,172.04,320.45,172.05,319.46,172.98L319.46,172.98z"/>
	</g>
</g>
<g id="XMLID_51_">
	<g>
		<path class="st0" d="M326.24,181.71c1.5,9.65,0.06,19.76-4.2,28.56c-0.49,1-0.99,2.01-1.57,2.96c-0.23,0.38-0.48,0.81-0.81,1.11
			c-0.12,0.11-0.39,0.21-0.5,0.33c-0.34,0.03-0.33,0.08,0.03,0.16c0.18,0.03,0.32,0.11,0.44,0.24c-0.1,0.05-0.16-1.22-0.16-1.26
			c0.03-0.56,0.18-1.13,0.32-1.67c0.32-1.2,0.75-2.39,1.18-3.56c1.59-4.34,3.69-8.49,6.2-12.37c2.88-4.46,6.3-8.55,10.18-12.18
			c1.33-1.25-2.54-4.35-4.03-2.95c-7.95,7.46-13.95,16.87-17.36,27.22c-0.89,2.7-1.41,5.44,0.6,7.79c1.73,2.03,5,3.42,7.14,1.2
			c0.88-0.91,1.43-2.18,2-3.3c0.64-1.27,1.23-2.57,1.76-3.88c1.06-2.59,1.9-5.27,2.51-8c1.4-6.23,1.59-12.72,0.61-19.02
			c-0.18-1.15-1.41-2.11-2.46-2.44C327.29,180.4,326.06,180.55,326.24,181.71L326.24,181.71z"/>
	</g>
</g>
<g id="XMLID_52_">
	<g>
		<path class="st0" d="M337.01,182.97c3.46-3.34,5.58-7.96,5.54-12.8c-0.01-1.06,0.02-2.38-0.35-3.39
			c-0.39-1.07-2.44-0.13-3.09,0.18c-1.88,0.9-4.3,2.78-3.47,5.19c0.36,1.05,1.57,1.64,2.58,1.85c1.33,0.27,2.73,0.11,4.05-0.09
			c-0.15-0.03-0.3-0.07-0.45-0.1c1.77,3.52-2.98,9.12,1.04,11.77c1.49,0.98,3.36,0.91,5,0.38c2.22-0.72,5.15-2.28,5.82-4.73
			c0.2-0.74-1.73,0.13-1.89,0.21c-0.57,0.29-1.14,0.61-1.64,1.01c-0.28,0.22-0.71,0.53-0.81,0.89c-0.07,0.27-0.17,0.53-0.31,0.77
			c-0.03,0.04-0.23,0.4-0.12,0.18c-0.16,0.15-0.15,0.14,0.04-0.03c0.22-0.15,0.44-0.29,0.66-0.44c0.17-0.1,0.52-0.34,0.74-0.33
			c-0.01,0-0.48,0.12-0.23,0.07c-0.28,0.06-0.57,0.09-0.86,0.08c-1.3-0.02-2.61-0.63-3.22-1.81c-0.84-1.63-0.27-3.56,0.13-5.22
			c0.42-1.74,0.83-3.62-0.01-5.29c-0.13-0.12-0.28-0.15-0.45-0.1c-1.76,0.27-4.87,0.66-5.71-1.47c-0.29-0.75-0.1-1.43,0.2-2.13
			c0.69-0.89-0.12-0.44-2.43,1.36c-0.32,0.02-0.36,0.04-0.12,0.06c0.16-0.01,0.22,0.07,0.2,0.24c0.02,0.08,0.03,0.16,0.05,0.24
			c0.12,0.61,0.2,1.22,0.25,1.84c0.35,4.56-1.35,9.42-4.66,12.61c-0.1,0.09-0.55,0.52-0.42,0.74c0.13,0.23,0.72,0.05,0.85,0.02
			C335.03,184.43,336.2,183.75,337.01,182.97L337.01,182.97z"/>
	</g>
</g>
<g id="XMLID_63_">
	<g>
		<path class="st0" d="M363.68,170.73c-4.88,0.92-9.02,4.71-9.93,9.68c-0.52,2.86,0.01,6.52,3.54,6.99
			c1.74,0.23,3.11-0.82,4.33-1.91c1.03-0.92,2.01-1.9,2.88-2.96c1.92-2.34,3.42-5.06,4.4-7.93c-1.57-0.55-3.15-1.1-4.72-1.65
			c-1.38,4.13-1.5,9.61,3.13,11.69c3.08,1.38,8.33,0.24,8.28-3.88c-0.01-1.28-1.24-2.22-2.43-2.36c-1.11-0.13-2.49,0.51-2.48,1.79
			c0,0.11,0.01,0.23-0.01,0.34c0.03-0.22,0.11-0.22,0-0.07c0,0-0.26,0.46-0.06,0.18c0.17-0.25-0.05,0.04-0.09,0.07
			c-0.21,0.2,0.31-0.22,0.07-0.05c-0.08,0.06-0.17,0.12-0.25,0.19c-0.13,0.1-0.42,0.15,0,0.01c-0.02,0.01-0.31,0.12-0.31,0.12
			c0.01,0.03-0.31,0.07,0.09,0c-0.11,0.02-0.23,0.04-0.34,0.05c-0.12,0.01-0.24,0.01-0.35,0.03c0.5-0.08,0.2,0.01,0.01-0.01
			c-0.11-0.02-0.24-0.04-0.35-0.05c-0.28-0.01,0.38,0.16,0.14,0.03c-0.09-0.05-0.23-0.09-0.33-0.12c-0.3-0.07,0.53,0.29,0.06,0.01
			c-0.27-0.16-0.02-0.04,0.08,0.08c-0.07-0.09-0.17-0.16-0.25-0.24c0.19,0.2,0.05,0.07-0.04-0.08c-0.08-0.14-0.18-0.28-0.25-0.43
			c0.11,0.22-0.07-0.22-0.09-0.28c-0.05-0.16-0.09-0.32-0.13-0.48c-0.08-0.32-0.07-0.36-0.09-0.7c-0.07-1.48,0.25-2.78,0.71-4.19
			c0.85-2.55-3.85-4.2-4.72-1.65c-0.81,2.38-1.97,4.55-3.52,6.53c-0.74,0.94-1.54,1.84-2.43,2.64c-0.24,0.21-0.49,0.42-0.73,0.63
			c-0.16,0.13-0.73,0.43-0.8,0.6c0.3-0.75,1.92,0.48,1.86,0.56c0.05,0.13,0.04,0.08-0.04-0.15c-0.05-0.25-0.07-0.29-0.04-0.11
			c-0.3-2.01,0.57-4.12,1.76-5.67c0.69-0.89,1.25-1.43,2.23-2.07c0.49-0.32,0.57-0.37,1.08-0.58c0.26-0.11,0.52-0.21,0.79-0.29
			c0.15-0.05,0.31-0.09,0.46-0.13c-0.19,0.04-0.15,0.04,0.12-0.02c1.14-0.21,2.13-1.08,1.77-2.34
			C366.34,171.4,364.87,170.51,363.68,170.73L363.68,170.73z"/>
	</g>
</g>
<g id="XMLID_67_">
	<g>
		<path class="st0" d="M375.44,183.47c0.9-1.94,1.9-3.83,2.99-5.67c0.97-1.62,2.03-3.85,3.64-4.93c0.14-0.1,0.28-0.18,0.43-0.26
			c0.87-0.12,0.55-0.65-0.97-1.58c-0.12,0.37-0.03,0.95-0.05,1.34c-0.06,1.13-0.12,2.26-0.18,3.39c-0.12,2.34-0.25,4.68-0.37,7.03
			c-0.06,1.15,0.79,2.36,1.67,3.02c0.63,0.47,1.79,0.84,1.91-0.3c0.24-2.3,0.86-4.51,1.9-6.58c0.49-0.99,1.06-1.99,1.75-2.85
			c0.35-0.43,0.75-0.83,1.2-1.16c0.54-0.4,1.04-0.34,1.59-0.58c0.07,0.02,0.13,0.03,0.2,0.05c-0.25-0.28-0.5-0.56-0.75-0.84
			c-0.06,0.01,0.02-0.06-0.03-0.02c-0.02,0.02,0.03,0.98,0.02,1.05c-0.08,0.9-0.42,1.7-0.72,2.54c-0.83,2.34-1.09,4.49,0.15,6.74
			c0.41,0.74,1.1,1.57,1.92,1.85c0.56,0.19,1.21,0.07,1.24-0.67c0.08-2.99,0.22-7.37,3.64-8.51c0.55-0.18,1.18-0.28,1.77-0.22
			c0.11,0.01,0.56,0.18,0.62,0.14c-0.23,0.16-0.26-1.1-0.39-0.39c-0.15,0.87-0.1,1.94-0.15,2.83c-0.05,0.91,0.04,1.79,0.3,2.66
			c0.52,1.74,1.71,3.56,3.38,4.39c1.69,0.84,3.16,0.13,4.25-1.25c2.47-3.14,3.76-6.68,5.05-10.4c0.13-0.37,0.27-0.74,0.47-1.08
			c0.22-0.36,0.55-0.51,0.8-0.79c0.04-0.04,0.33-0.03,0.33-0.04c0.01-0.05-0.57-0.43-0.58-0.41c-0.06,0.08,0.42,1.18,0.47,1.32
			c0.72,2.34,0.86,4.78,0.61,7.2c-0.12,1.22,2.26,4.75,3.49,3.1c0.88-1.18,1.18-2.61,1.46-4.02c0.25-1.25,0.41-2.79,1.34-3.75
			c0.63-0.65,2.09-1.14,2.86-0.41c0.47,0.45,0.33,1.69,0.28,2.28c-0.09,1.19-0.39,2.34-0.7,3.48c1.16,1.03,2.33,2.07,3.49,3.1
			c0.38-1.7,0.84-3.66,2.11-4.95c0.57-0.58,1.21-0.94,2.02-1.03c0.3-0.03,0.57-0.03,0.86,0.02c0.08,0.02,0.65,0.25,0.7,0.24
			c-0.38-0.24-0.65-0.57-0.81-1.01c-0.09-0.2-0.12-0.09-0.08,0.31c-0.17,0.43-0.2,1.1-0.2,1.56c-0.01,0.94,0.25,1.86,0.69,2.69
			c0.86,1.64,2.42,2.92,4.23,3.31c3.35,0.73,6.84-1.19,9.42-3.14c2.99-2.26,5.33-5.36,6.71-8.84c0.58-1.46-1.16-3.46-2.48-3.85
			c-2.97-0.89-5.86,1.25-6.72,4.08c-1.05,3.49,1.01,7.08,3.68,9.24c6.37,5.14,13.91,0.91,19.49-3.19c3.74-2.75,7.19-5.86,10.34-9.27
			c1.25-1.35-1.9-5.18-2.97-4.02c-2.84,3.08-5.93,5.92-9.26,8.46c-3.08,2.35-6.48,4.92-10.31,5.84c-1.65,0.4-3.3,0.47-4.94-0.03
			c-0.92-0.28-2.17-0.83-2.57-1.7c-1.22-2.64,2.26-5.95,4.81-5.18c-0.83-1.28-1.65-2.57-2.48-3.85c-1.45,3.66-3.93,6.76-7.2,8.96
			c-1.44,0.97-3.09,1.92-4.81,2.25c-0.65,0.13-1.33,0.19-2,0.09c-0.16-0.02-0.73-0.27-0.87-0.25c2.03-0.38,0.38,1.83,0.83,0.75
			c0.79-1.91-0.2-4.34-1.5-5.74c-1.15-1.23-2.65-2-4.35-2.01c-4.01-0.01-5.23,4.4-5.95,7.56c-0.22,0.96,0.79,2.26,1.44,2.81
			c0.37,0.31,1.79,1.26,2.05,0.28c0.79-2.91,1.42-5.89,0.17-8.77c-1.05-2.41-3.39-4.89-6.16-5.08c-5.12-0.34-3.97,6.49-6.07,9.3
			c1.16,1.03,2.33,2.07,3.49,3.1c0.25-2.44,0.12-4.94-0.45-7.33c-0.55-2.29-1.31-4.75-3.04-6.43c-1.44-1.4-3.55-2-4.87-0.14
			c-0.54,0.76-0.78,1.65-1.04,2.53c-0.36,1.18-0.78,2.34-1.28,3.47c-0.89,2.02-1.99,4.27-3.5,5.9c-0.26,0.28-0.62,0.65-0.99,0.77
			c0.27-0.09-0.58,0.12-0.54,0.04c0.12-0.21,0.65,0.62,0.67,0.6c0.06-0.06-0.06-0.53-0.06-0.62c-0.03-0.62,0.1-1.26,0.15-1.87
			c0.19-2.4-0.43-4.63-2.17-6.37c-1.28-1.28-3.05-1.96-4.86-1.72c-4.96,0.66-5.65,6.21-5.76,10.25c1.05,0.39,2.11,0.78,3.16,1.18
			c-0.42-0.76,0.42-2.6,0.73-3.45c0.4-1.08,0.72-2.2,0.73-3.36c0.01-2.63-1.56-5.68-4.23-6.47c-2.87-0.84-4.92,1.99-6.17,4.14
			c-1.5,2.58-2.37,5.48-2.67,8.44c1.19,0.91,2.39,1.81,3.58,2.72c0.17-3.15,0.33-6.3,0.5-9.45c0.07-1.36,0.27-2.79-0.17-4.11
			c-0.48-1.45-1.56-2.88-3.01-3.46c-2.5-1.02-4.2,1.76-5.35,3.5c-1.69,2.55-3.17,5.23-4.46,8
			C371.33,181.52,374.66,185.14,375.44,183.47L375.44,183.47z"/>
	</g>
</g>
</svg>
